<mxfile host="app.diagrams.net" modified="2020-10-26T11:33:12.414Z" agent="5.0 (Windows NT 10.0; Win64; x64) AppleWebKit/537.36 (KHTML, like Gecko) Chrome/86.0.4240.111 Safari/537.36" etag="90MHLIKmNjmjJ2a2PJtx" version="13.8.0" type="github">
  <diagram id="Vl5ydElE52ZGPlCbTpdD" name="Page-1">
    <mxGraphModel dx="1483" dy="756" grid="1" gridSize="10" guides="1" tooltips="1" connect="1" arrows="1" fold="1" page="1" pageScale="1" pageWidth="1169" pageHeight="827" math="0" shadow="0">
      <root>
        <mxCell id="0" />
        <mxCell id="1" parent="0" />
        <mxCell id="WMOeXTcXHc7uh7UOw4C3-1" value="楼梯传感器" style="shape=umlActor;verticalLabelPosition=bottom;verticalAlign=top;html=1;outlineConnect=0;fontSize=18;" vertex="1" parent="1">
          <mxGeometry x="100" y="40" width="50" height="90" as="geometry" />
        </mxCell>
        <mxCell id="WMOeXTcXHc7uh7UOw4C3-2" value="摄像头" style="shape=umlActor;verticalLabelPosition=bottom;verticalAlign=top;html=1;outlineConnect=0;fontSize=18;" vertex="1" parent="1">
          <mxGeometry x="100" y="190" width="50" height="90" as="geometry" />
        </mxCell>
        <mxCell id="WMOeXTcXHc7uh7UOw4C3-3" value="床传感器&lt;br style=&quot;font-size: 18px;&quot;&gt;" style="shape=umlActor;verticalLabelPosition=bottom;verticalAlign=top;html=1;outlineConnect=0;fontSize=18;" vertex="1" parent="1">
          <mxGeometry x="100" y="340" width="50" height="90" as="geometry" />
        </mxCell>
        <mxCell id="WMOeXTcXHc7uh7UOw4C3-4" value="系统管理员" style="shape=umlActor;verticalLabelPosition=bottom;verticalAlign=top;html=1;outlineConnect=0;fontSize=18;" vertex="1" parent="1">
          <mxGeometry x="100" y="480" width="50" height="90" as="geometry" />
        </mxCell>
        <mxCell id="WMOeXTcXHc7uh7UOw4C3-12" style="edgeStyle=orthogonalEdgeStyle;rounded=0;orthogonalLoop=1;jettySize=auto;html=1;fontSize=18;dashed=1;" edge="1" parent="1" source="WMOeXTcXHc7uh7UOw4C3-5" target="WMOeXTcXHc7uh7UOw4C3-6">
          <mxGeometry relative="1" as="geometry" />
        </mxCell>
        <mxCell id="WMOeXTcXHc7uh7UOw4C3-5" value="摔倒动作检测" style="ellipse;whiteSpace=wrap;html=1;fontSize=18;" vertex="1" parent="1">
          <mxGeometry x="390" y="60" width="140" height="70" as="geometry" />
        </mxCell>
        <mxCell id="WMOeXTcXHc7uh7UOw4C3-15" style="edgeStyle=orthogonalEdgeStyle;rounded=0;orthogonalLoop=1;jettySize=auto;html=1;dashed=1;fontSize=18;" edge="1" parent="1" source="WMOeXTcXHc7uh7UOw4C3-6" target="WMOeXTcXHc7uh7UOw4C3-7">
          <mxGeometry relative="1" as="geometry" />
        </mxCell>
        <mxCell id="WMOeXTcXHc7uh7UOw4C3-6" value="摔倒事件报警" style="ellipse;whiteSpace=wrap;html=1;fontSize=18;" vertex="1" parent="1">
          <mxGeometry x="390" y="190" width="140" height="70" as="geometry" />
        </mxCell>
        <mxCell id="WMOeXTcXHc7uh7UOw4C3-7" value="事件日志" style="ellipse;whiteSpace=wrap;html=1;fontSize=18;" vertex="1" parent="1">
          <mxGeometry x="390" y="310" width="140" height="70" as="geometry" />
        </mxCell>
        <mxCell id="WMOeXTcXHc7uh7UOw4C3-16" style="edgeStyle=orthogonalEdgeStyle;rounded=0;orthogonalLoop=1;jettySize=auto;html=1;dashed=1;fontSize=18;" edge="1" parent="1" source="WMOeXTcXHc7uh7UOw4C3-8" target="WMOeXTcXHc7uh7UOw4C3-7">
          <mxGeometry relative="1" as="geometry" />
        </mxCell>
        <mxCell id="WMOeXTcXHc7uh7UOw4C3-8" value="床传感器检测" style="ellipse;whiteSpace=wrap;html=1;fontSize=18;" vertex="1" parent="1">
          <mxGeometry x="395" y="430" width="130" height="76" as="geometry" />
        </mxCell>
        <mxCell id="WMOeXTcXHc7uh7UOw4C3-9" value="配置系统" style="ellipse;whiteSpace=wrap;html=1;fontSize=18;" vertex="1" parent="1">
          <mxGeometry x="390" y="530" width="130" height="80" as="geometry" />
        </mxCell>
        <mxCell id="WMOeXTcXHc7uh7UOw4C3-10" value="" style="endArrow=none;html=1;fontSize=18;entryX=0;entryY=0.5;entryDx=0;entryDy=0;" edge="1" parent="1" source="WMOeXTcXHc7uh7UOw4C3-1" target="WMOeXTcXHc7uh7UOw4C3-5">
          <mxGeometry width="50" height="50" relative="1" as="geometry">
            <mxPoint x="210" y="150" as="sourcePoint" />
            <mxPoint x="260" y="100" as="targetPoint" />
          </mxGeometry>
        </mxCell>
        <mxCell id="WMOeXTcXHc7uh7UOw4C3-11" value="" style="endArrow=none;html=1;fontSize=18;" edge="1" parent="1" source="WMOeXTcXHc7uh7UOw4C3-2">
          <mxGeometry width="50" height="50" relative="1" as="geometry">
            <mxPoint x="280" y="190" as="sourcePoint" />
            <mxPoint x="390" y="100" as="targetPoint" />
          </mxGeometry>
        </mxCell>
        <mxCell id="WMOeXTcXHc7uh7UOw4C3-13" value="Condition:&lt;br&gt;检测到老人摔倒" style="shape=note;size=20;whiteSpace=wrap;html=1;fontSize=18;" vertex="1" parent="1">
          <mxGeometry x="560" y="120" width="150" height="70" as="geometry" />
        </mxCell>
        <mxCell id="WMOeXTcXHc7uh7UOw4C3-14" value="" style="endArrow=none;dashed=1;html=1;dashPattern=1 3;strokeWidth=2;fontSize=18;entryX=0;entryY=0.5;entryDx=0;entryDy=0;entryPerimeter=0;" edge="1" parent="1" target="WMOeXTcXHc7uh7UOw4C3-13">
          <mxGeometry width="50" height="50" relative="1" as="geometry">
            <mxPoint x="460" y="160" as="sourcePoint" />
            <mxPoint x="530" y="140" as="targetPoint" />
          </mxGeometry>
        </mxCell>
        <mxCell id="WMOeXTcXHc7uh7UOw4C3-17" value="&amp;lt;&amp;lt;include&amp;gt;&amp;gt;" style="text;html=1;strokeColor=none;fillColor=none;align=center;verticalAlign=middle;whiteSpace=wrap;rounded=0;fontSize=18;" vertex="1" parent="1">
          <mxGeometry x="500" y="280" width="40" height="20" as="geometry" />
        </mxCell>
        <mxCell id="WMOeXTcXHc7uh7UOw4C3-18" value="&amp;lt;&amp;lt;include&amp;gt;&amp;gt;" style="text;html=1;strokeColor=none;fillColor=none;align=center;verticalAlign=middle;whiteSpace=wrap;rounded=0;fontSize=18;" vertex="1" parent="1">
          <mxGeometry x="500" y="403" width="40" height="20" as="geometry" />
        </mxCell>
        <mxCell id="WMOeXTcXHc7uh7UOw4C3-19" value="" style="endArrow=none;html=1;fontSize=18;entryX=0;entryY=0.5;entryDx=0;entryDy=0;" edge="1" parent="1" source="WMOeXTcXHc7uh7UOw4C3-3" target="WMOeXTcXHc7uh7UOw4C3-8">
          <mxGeometry width="50" height="50" relative="1" as="geometry">
            <mxPoint x="240" y="330" as="sourcePoint" />
            <mxPoint x="290" y="280" as="targetPoint" />
          </mxGeometry>
        </mxCell>
        <mxCell id="WMOeXTcXHc7uh7UOw4C3-20" value="" style="endArrow=none;html=1;fontSize=18;entryX=0;entryY=0.5;entryDx=0;entryDy=0;" edge="1" parent="1" source="WMOeXTcXHc7uh7UOw4C3-4" target="WMOeXTcXHc7uh7UOw4C3-9">
          <mxGeometry width="50" height="50" relative="1" as="geometry">
            <mxPoint x="220" y="580" as="sourcePoint" />
            <mxPoint x="270" y="530" as="targetPoint" />
          </mxGeometry>
        </mxCell>
      </root>
    </mxGraphModel>
  </diagram>
</mxfile>
